<svg xmlns="http://www.w3.org/2000/svg" height="800" width="1200" version="1.1" id="Layer_1" viewBox="-62.3745 -19.355 540.579 116.13"><defs id="defs4"><style id="style2">.cls-1{fill:#bf2026}</style></defs><path transform="translate(-.43 -1.43)" class="cls-1" id="polygon8" fill="#bf2026" d="M302.96 19.23l-14.65 17.11 15.97 22.47h-11.06l-13.96-19.96h-.17v19.96h-9.24V1.43h9.24v32.92l12.8-15.12z"/><path class="cls-1" d="M303.02 37.57c0-13 6.08-20.72 17.48-20.72s17.45 7.77 17.45 20.72-6.07 20.7-17.45 20.7c-11.38 0-17.48-7.7-17.48-20.7m17.48 14.2c6.63 0 7.63-6.8 7.63-14.2 0-7.4-1-14.21-7.63-14.21s-7.67 6.8-7.67 14.21c0 7.41 1 14.2 7.67 14.2" id="path10" fill="#bf2026"/><path class="cls-1" d="M352.22 22.57h.16a11.54 11.54 0 0110.19-5.7c9.49 0 13.64 8.07 13.64 20.72 0 11-3.83 20.7-16.72 20.7-10.4 0-16.54-5.91-16.54-17.72V0h9.23v22.57zm7.35 29.22c5.92 0 6.91-7.72 6.91-14.2 0-7.16-.74-14.81-6.91-14.81-5.57 0-7.31 8.16-7.31 14.81 0 9.89 1.49 14.2 7.31 14.2" id="path12" fill="#bf2026"/><path class="cls-1" d="M380.91 37.57c0-13 6.07-20.72 17.46-20.72s17.46 7.77 17.46 20.72-6.07 20.7-17.46 20.7-17.46-7.7-17.46-20.7m17.46 14.2c6.65 0 7.65-6.8 7.65-14.2 0-7.4-1-14.21-7.65-14.21s-7.65 6.8-7.65 14.21c0 7.41 1 14.2 7.65 14.2" id="path14" fill="#bf2026"/><path transform="translate(-.43 -1.43)" class="cls-1" id="polygon16" fill="#bf2026" d="M51.19 66.61l12.23 12.24 141.32-12.24z"/><path class="cls-1" d="M56.07 48.37c-5.3 0-9.19-5.23-9.19-11.82s3.89-11.82 9.19-11.82c5.3 0 9 5.22 9 11.82 0 6.6-3.74 11.82-9 11.82zm8.91-32.66v1.86a15.48 15.48 0 00-8.91-2.87c-10.76 0-18.93 9.81-18.93 21.86 0 12.05 8.17 21.84 18.93 21.84a15.48 15.48 0 008.91-2.83v1.85h9.46V15.71z" id="path18" fill="#bf2026"/><path class="cls-1" d="M140.73 15.71v24.48c0 4.59-3.15 8.47-7.74 8.47s-7.75-3.88-7.75-8.47V15.71h-9.46v24.48c0 10 6.87 18.21 16.92 18.21a14.48 14.48 0 008-2.57v1.55h9.46V15.71z" id="path20" fill="#bf2026"/><path class="cls-1" d="M228.85 57.38V32.9c0-4.59 3.15-8.47 7.75-8.47s7.75 3.88 7.75 8.47v24.48h9.45V32.9c0-10-6.87-18.21-16.91-18.21a14.54 14.54 0 00-8 2.57v-1.55h-9.46v41.67z" id="path22" fill="#bf2026"/><path class="cls-1" d="M9.89 15.21h6.45a8.07 8.07 0 110 16.13H9.89zm0 42.17V41.24h7l12.1 16.14h12.38L26.74 37.9a17.94 17.94 0 00-10.4-32.57H0v52.05z" id="path24" fill="#bf2026"/><path class="cls-1" d="M175.68 47.57a5.67 5.67 0 01-3.17 1c-1.54 0-4.45-1.18-4.45-5.11V25.57h8.08v-9.86h-8.08V5.33h-9.49v10.38h-5v9.86h5v18c0 9.3 7 14.86 14.06 14.86a19.38 19.38 0 009.25-2.63z" id="path26" fill="#bf2026"/><path transform="translate(-.43 -1.43)" class="cls-1" id="polygon28" fill="#bf2026" d="M90 3.32h-9.74v55.49H90V41.69l13.94 17.12h13.25L98.38 36.67l16.22-19.53h-13.26L90 31.66z"/><path class="cls-1" d="M205.78 31.17h-17c2-9.76 15.19-10.32 17 0zm-8.21-16.52c-10.94 0-18.8 9.62-18.8 21.9 0 12.9 9.86 21.89 19.74 21.89 5 0 11.38-1.71 16.75-9.33l-8.35-4.82c-6.46 9.52-17.23 4.69-18.47-4.83h27.24c2.33-15-7.35-24.81-18.11-24.81z" id="path30" fill="#bf2026"/></svg>