<svg xmlns="http://www.w3.org/2000/svg" height="800" width="1200" viewBox="-6.209175 -5.775775 53.81285 34.65465"><path d="M41.069 19.6903c-.1553.1507-.3476.23-.5596.23-.2004 0-.3972-.0825-.5443-.2317-.1478-.15-.2297-.3426-.2297-.5479 0-.205.085-.4046.2364-.5588.1428-.1457.3348-.223.5447-.223.214 0 .4067.0798.5566.2325.1447.1447.2226.3405.2226.5567 0 .2082-.0804.4004-.2268.5422m.0706-1.1666c-.1672-.17-.3863-.26-.6259-.26-.236 0-.448.0847-.6089.2487-.1696.1725-.2652.3969-.2652.6283 0 .2318.0896.4466.256.6149.1676.17.385.2632.6181.2632.23 0 .452-.0931.6245-.261.165-.161.2564-.3758.2564-.6171a.878.878 0 00-.255-.617"/><path d="M40.5428 19.1417c.1488 0 .2557-.077.2557-.2047v-.004c0-.1224-.0945-.1961-.255-.1961h-.3076v.4046zm-.4188-.5088h.4283c.1231 0 .2208.0367.2836.0995.0484.0483.0766.1182.0766.1969v.002c0 .1654-.114.2625-.271.2914l.3077.4074h-.139l-.289-.388h-.2854v.388h-.1118zM0 18.793h.9994l.878 2.8691.9505-2.8807h.7987l.9503 2.8807.8781-2.8691h.9747L4.983 23.0606h-.8114l-.9567-2.7722-.956 2.7722h-.8115zm9.9643 2.131v-.012c0-.7267-.5327-1.3324-1.2834-1.3324-.7503 0-1.2714.594-1.2714 1.3197v.0127c0 .7257.5327 1.3314 1.2834 1.3314.751 0 1.2714-.5927 1.2714-1.3194m-3.5292 0v-.012c0-1.2058.9508-2.1918 2.2578-2.1918s2.2465.9744 2.2465 2.1791v.0127c0 1.2047-.95 2.1911-2.2585 2.1911-1.3074 0-2.2458-.974-2.2458-2.1791m6.9077-.0729c.4547 0 .7147-.242.7147-.5997v-.0113c0-.4-.279-.6064-.733-.6064h-.9261v1.2174zm-1.8768-2.058h1.937c.5395 0 .9572.151 1.2355.4293.236.2367.3637.5694.3637.969v.012c0 .684-.3697 1.1141-.9087 1.3138l1.0354 1.5138H14.039l-.9084-1.3565h-.7323v1.3565h-.9324zm4.212-.0001h.9317v1.8524l1.7205-1.8524h1.1264l-1.7264 1.7981 1.8044 2.4398h-1.12l-1.3138-1.804-.491.508v1.296h-.9318zm3.9781 3.6204l.551-.6604c.3818.3154.7814.515 1.2658.515.3817 0 .6114-.1513.6114-.3997v-.012c0-.2356-.145-.3566-.8537-.539-.8538-.2173-1.4045-.4537-1.4045-1.2957V20.01c0-.7688.6174-1.2775 1.4831-1.2775.6177 0 1.144.193 1.5748.5384l-.4854.7027c-.375-.26-.7444-.418-1.101-.418-.358 0-.5454.1633-.5454.3697v.012c0 .2783.1813.369.9144.5567.8594.224 1.344.533 1.344 1.2714v.012c0 .8417-.6416 1.314-1.556 1.314-.642 0-1.2894-.224-1.7985-.678m5.649-1.4834c.4664 0 .7384-.2779.7384-.6416v-.012c0-.4177-.29-.6428-.7564-.6428h-.7203v1.2965zm-1.671-2.137h1.7317c1.011 0 1.6217.599 1.6217 1.465v.0124c0 .9803-.7623 1.4887-1.713 1.4887h-.7077v1.2717h-.9328zm5.7804 2.4644l-.5627-1.3748-.5644 1.3748zm-.9807-2.4945h.8597l1.8165 4.268h-.9751l-.387-.9508h-1.7925l-.3873.9507h-.9504zm2.5712 2.1611v-.012c0-1.2058.908-2.1918 2.2101-2.1918.7987 0 1.277.267 1.6708.6534l-.5934.6847c-.3274-.297-.6597-.4787-1.0837-.4787-.7148 0-1.2288.594-1.2288 1.3197v.0127c0 .7257.5024 1.3314 1.2288 1.3314.4843 0 .7807-.1937 1.1144-.4964l.593.5998c-.436.4656-.9204.7563-1.7378.7563-1.247 0-2.1734-.962-2.1734-2.179m4.446-2.1311h3.1961v.8294H36.377v.8594h1.9978v.8293H36.377v.8897h2.3008v.8301H35.451z"/><path d="M9.126 10.53c-1.9385 0-3.51-1.5712-3.51-3.51 0-1.9386 1.5715-3.5099 3.51-3.5099 1.9386 0 3.5102 1.5713 3.5102 3.5098 0 1.9389-1.5716 3.5102-3.5102 3.5102M9.126 0C5.249 0 2.1058 3.1429 2.1058 7.02c0 3.8773 3.1432 7.0202 7.0202 7.0202s7.02-3.1429 7.02-7.0203C16.146 3.143 13.003 0 9.126 0" fill="#00b0e3"/><path d="M3.2175 14.6427c-.8174 0-1.4803-.6629-1.4803-1.4803 0-.8174.6629-1.4799 1.4803-1.4799.8174 0 1.4802.6625 1.4802 1.48 0 .8173-.6628 1.4802-1.4802 1.4802m0-4.6976C1.4405 9.945 0 11.3858 0 13.1624c0 1.7773 1.4404 3.2177 3.2174 3.2177 1.777 0 3.2173-1.4404 3.2173-3.2177 0-1.7766-1.4404-3.2173-3.2173-3.2173" fill="#0082b2"/></svg>